<mxfile host="Electron" agent="Mozilla/5.0 (Windows NT 10.0; Win64; x64) AppleWebKit/537.36 (KHTML, like Gecko) draw.io/21.2.1 Chrome/112.0.5615.87 Electron/24.1.2 Safari/537.36" modified="2024-08-24T03:54:16.373Z" version="21.2.1" etag="o2mUEZ5ShodXYZC3uGLf" type="device" pages="2">
  <diagram name="PrimerAplicacion" id="sEoDVmcpTi-er92uETio">
    <mxGraphModel dx="3720" dy="2214" grid="1" gridSize="10" guides="1" tooltips="1" connect="1" arrows="1" fold="1" page="1" pageScale="1" pageWidth="827" pageHeight="1169" math="0" shadow="0">
      <root>
        <mxCell id="0" />
        <mxCell id="1" parent="0" />
        <mxCell id="QBYiMx9dmfPBYRGnAuFD-5" value="DatabaseService&lt;div&gt;&lt;br&gt;&lt;/div&gt;" style="shape=module;align=left;spacingLeft=20;align=center;verticalAlign=top;whiteSpace=wrap;html=1;" parent="1" vertex="1">
          <mxGeometry x="210" y="710" width="340" height="170" as="geometry" />
        </mxCell>
        <mxCell id="QBYiMx9dmfPBYRGnAuFD-6" value="&lt;div&gt;Documents&lt;/div&gt;&lt;div&gt;&lt;br&gt;&lt;/div&gt;" style="shape=module;align=left;spacingLeft=20;align=center;verticalAlign=top;whiteSpace=wrap;html=1;" parent="1" vertex="1">
          <mxGeometry x="540" y="300" width="600" height="300" as="geometry" />
        </mxCell>
        <mxCell id="QBYiMx9dmfPBYRGnAuFD-7" value="&lt;div&gt;Users&lt;/div&gt;" style="shape=module;align=left;spacingLeft=20;align=center;verticalAlign=top;whiteSpace=wrap;html=1;" parent="1" vertex="1">
          <mxGeometry x="-320" y="300" width="510" height="300" as="geometry" />
        </mxCell>
        <mxCell id="QBYiMx9dmfPBYRGnAuFD-13" style="edgeStyle=orthogonalEdgeStyle;rounded=0;orthogonalLoop=1;jettySize=auto;html=1;entryX=0.5;entryY=0;entryDx=0;entryDy=0;" parent="1" source="QBYiMx9dmfPBYRGnAuFD-8" target="QBYiMx9dmfPBYRGnAuFD-5" edge="1">
          <mxGeometry relative="1" as="geometry" />
        </mxCell>
        <mxCell id="QBYiMx9dmfPBYRGnAuFD-8" value="&lt;div&gt;SoftwareApp&lt;/div&gt;" style="shape=module;align=left;spacingLeft=20;align=center;verticalAlign=top;whiteSpace=wrap;html=1;" parent="1" vertex="1">
          <mxGeometry x="60" y="-80" width="640" height="310" as="geometry" />
        </mxCell>
        <mxCell id="cMgaW1KZYYT-pBfKISx4-1" value="Package" style="shape=folder;fontStyle=1;tabWidth=110;tabHeight=30;tabPosition=left;html=1;boundedLbl=1;labelInHeader=1;container=1;collapsible=0;whiteSpace=wrap;" parent="1" vertex="1">
          <mxGeometry x="-20" y="475" width="130" height="70" as="geometry" />
        </mxCell>
        <mxCell id="cMgaW1KZYYT-pBfKISx4-2" value="Data" style="html=1;strokeColor=none;resizeWidth=1;resizeHeight=1;fillColor=none;part=1;connectable=0;allowArrows=0;deletable=0;whiteSpace=wrap;" parent="cMgaW1KZYYT-pBfKISx4-1" vertex="1">
          <mxGeometry width="130" height="49" relative="1" as="geometry">
            <mxPoint y="30" as="offset" />
          </mxGeometry>
        </mxCell>
        <mxCell id="cMgaW1KZYYT-pBfKISx4-3" value="Package" style="shape=folder;fontStyle=1;tabWidth=110;tabHeight=30;tabPosition=left;html=1;boundedLbl=1;labelInHeader=1;container=1;collapsible=0;whiteSpace=wrap;" parent="1" vertex="1">
          <mxGeometry x="-20" y="350" width="130" height="70" as="geometry" />
        </mxCell>
        <mxCell id="cMgaW1KZYYT-pBfKISx4-4" value="Factories" style="html=1;strokeColor=none;resizeWidth=1;resizeHeight=1;fillColor=none;part=1;connectable=0;allowArrows=0;deletable=0;whiteSpace=wrap;" parent="cMgaW1KZYYT-pBfKISx4-3" vertex="1">
          <mxGeometry width="130" height="49" relative="1" as="geometry">
            <mxPoint y="30" as="offset" />
          </mxGeometry>
        </mxCell>
        <mxCell id="cMgaW1KZYYT-pBfKISx4-5" value="Package" style="shape=folder;fontStyle=1;tabWidth=110;tabHeight=30;tabPosition=left;html=1;boundedLbl=1;labelInHeader=1;container=1;collapsible=0;whiteSpace=wrap;" parent="1" vertex="1">
          <mxGeometry x="-240" y="470" width="130" height="70" as="geometry" />
        </mxCell>
        <mxCell id="cMgaW1KZYYT-pBfKISx4-6" value="Models" style="html=1;strokeColor=none;resizeWidth=1;resizeHeight=1;fillColor=none;part=1;connectable=0;allowArrows=0;deletable=0;whiteSpace=wrap;" parent="cMgaW1KZYYT-pBfKISx4-5" vertex="1">
          <mxGeometry width="130" height="49" relative="1" as="geometry">
            <mxPoint y="30" as="offset" />
          </mxGeometry>
        </mxCell>
        <mxCell id="cMgaW1KZYYT-pBfKISx4-7" value="Package" style="shape=folder;fontStyle=1;tabWidth=110;tabHeight=30;tabPosition=left;html=1;boundedLbl=1;labelInHeader=1;container=1;collapsible=0;whiteSpace=wrap;" parent="1" vertex="1">
          <mxGeometry x="-250" y="350" width="130" height="70" as="geometry" />
        </mxCell>
        <mxCell id="cMgaW1KZYYT-pBfKISx4-8" value="Services" style="html=1;strokeColor=none;resizeWidth=1;resizeHeight=1;fillColor=none;part=1;connectable=0;allowArrows=0;deletable=0;whiteSpace=wrap;" parent="cMgaW1KZYYT-pBfKISx4-7" vertex="1">
          <mxGeometry width="130" height="49" relative="1" as="geometry">
            <mxPoint y="30" as="offset" />
          </mxGeometry>
        </mxCell>
        <mxCell id="cMgaW1KZYYT-pBfKISx4-9" style="edgeStyle=orthogonalEdgeStyle;rounded=0;orthogonalLoop=1;jettySize=auto;html=1;entryX=0;entryY=0;entryDx=55;entryDy=0;entryPerimeter=0;" parent="1" source="cMgaW1KZYYT-pBfKISx4-3" target="cMgaW1KZYYT-pBfKISx4-5" edge="1">
          <mxGeometry relative="1" as="geometry">
            <Array as="points">
              <mxPoint x="45" y="450" />
              <mxPoint x="-185" y="450" />
            </Array>
          </mxGeometry>
        </mxCell>
        <mxCell id="cMgaW1KZYYT-pBfKISx4-11" style="edgeStyle=orthogonalEdgeStyle;rounded=0;orthogonalLoop=1;jettySize=auto;html=1;entryX=0;entryY=0;entryDx=0;entryDy=35;entryPerimeter=0;" parent="1" source="cMgaW1KZYYT-pBfKISx4-1" target="QBYiMx9dmfPBYRGnAuFD-5" edge="1">
          <mxGeometry relative="1" as="geometry">
            <Array as="points">
              <mxPoint x="140" y="520" />
              <mxPoint x="140" y="745" />
            </Array>
          </mxGeometry>
        </mxCell>
        <mxCell id="cMgaW1KZYYT-pBfKISx4-13" style="edgeStyle=orthogonalEdgeStyle;rounded=0;orthogonalLoop=1;jettySize=auto;html=1;entryX=0;entryY=0;entryDx=130;entryDy=40;entryPerimeter=0;" parent="1" source="cMgaW1KZYYT-pBfKISx4-1" target="cMgaW1KZYYT-pBfKISx4-5" edge="1">
          <mxGeometry relative="1" as="geometry" />
        </mxCell>
        <mxCell id="cMgaW1KZYYT-pBfKISx4-14" style="edgeStyle=orthogonalEdgeStyle;rounded=0;orthogonalLoop=1;jettySize=auto;html=1;entryX=0;entryY=0.314;entryDx=0;entryDy=0;entryPerimeter=0;" parent="1" source="cMgaW1KZYYT-pBfKISx4-7" target="cMgaW1KZYYT-pBfKISx4-1" edge="1">
          <mxGeometry relative="1" as="geometry" />
        </mxCell>
        <mxCell id="cMgaW1KZYYT-pBfKISx4-15" style="edgeStyle=orthogonalEdgeStyle;rounded=0;orthogonalLoop=1;jettySize=auto;html=1;entryX=0;entryY=0;entryDx=0;entryDy=30;entryPerimeter=0;" parent="1" source="cMgaW1KZYYT-pBfKISx4-7" target="cMgaW1KZYYT-pBfKISx4-5" edge="1">
          <mxGeometry relative="1" as="geometry">
            <Array as="points">
              <mxPoint x="-270" y="385" />
              <mxPoint x="-270" y="500" />
            </Array>
          </mxGeometry>
        </mxCell>
        <mxCell id="cMgaW1KZYYT-pBfKISx4-16" value="Package" style="shape=folder;fontStyle=1;tabWidth=110;tabHeight=30;tabPosition=left;html=1;boundedLbl=1;labelInHeader=1;container=1;collapsible=0;whiteSpace=wrap;" parent="1" vertex="1">
          <mxGeometry x="610" y="350" width="130" height="70" as="geometry" />
        </mxCell>
        <mxCell id="cMgaW1KZYYT-pBfKISx4-17" value="Services" style="html=1;strokeColor=none;resizeWidth=1;resizeHeight=1;fillColor=none;part=1;connectable=0;allowArrows=0;deletable=0;whiteSpace=wrap;" parent="cMgaW1KZYYT-pBfKISx4-16" vertex="1">
          <mxGeometry width="130" height="49" relative="1" as="geometry">
            <mxPoint y="30" as="offset" />
          </mxGeometry>
        </mxCell>
        <mxCell id="cMgaW1KZYYT-pBfKISx4-18" value="Package" style="shape=folder;fontStyle=1;tabWidth=110;tabHeight=30;tabPosition=left;html=1;boundedLbl=1;labelInHeader=1;container=1;collapsible=0;whiteSpace=wrap;" parent="1" vertex="1">
          <mxGeometry x="900" y="495" width="130" height="70" as="geometry" />
        </mxCell>
        <mxCell id="cMgaW1KZYYT-pBfKISx4-19" value="Models" style="html=1;strokeColor=none;resizeWidth=1;resizeHeight=1;fillColor=none;part=1;connectable=0;allowArrows=0;deletable=0;whiteSpace=wrap;" parent="cMgaW1KZYYT-pBfKISx4-18" vertex="1">
          <mxGeometry width="130" height="49" relative="1" as="geometry">
            <mxPoint y="30" as="offset" />
          </mxGeometry>
        </mxCell>
        <mxCell id="cMgaW1KZYYT-pBfKISx4-22" style="edgeStyle=orthogonalEdgeStyle;rounded=0;orthogonalLoop=1;jettySize=auto;html=1;entryX=1;entryY=0.5;entryDx=0;entryDy=0;" parent="1" source="cMgaW1KZYYT-pBfKISx4-20" target="QBYiMx9dmfPBYRGnAuFD-5" edge="1">
          <mxGeometry relative="1" as="geometry">
            <Array as="points">
              <mxPoint x="590" y="525" />
              <mxPoint x="590" y="795" />
            </Array>
          </mxGeometry>
        </mxCell>
        <mxCell id="cMgaW1KZYYT-pBfKISx4-20" value="Package" style="shape=folder;fontStyle=1;tabWidth=110;tabHeight=30;tabPosition=left;html=1;boundedLbl=1;labelInHeader=1;container=1;collapsible=0;whiteSpace=wrap;" parent="1" vertex="1">
          <mxGeometry x="620" y="490" width="130" height="70" as="geometry" />
        </mxCell>
        <mxCell id="cMgaW1KZYYT-pBfKISx4-21" value="Data" style="html=1;strokeColor=none;resizeWidth=1;resizeHeight=1;fillColor=none;part=1;connectable=0;allowArrows=0;deletable=0;whiteSpace=wrap;" parent="cMgaW1KZYYT-pBfKISx4-20" vertex="1">
          <mxGeometry width="130" height="49" relative="1" as="geometry">
            <mxPoint y="30" as="offset" />
          </mxGeometry>
        </mxCell>
        <mxCell id="cMgaW1KZYYT-pBfKISx4-23" style="edgeStyle=orthogonalEdgeStyle;rounded=0;orthogonalLoop=1;jettySize=auto;html=1;entryX=0;entryY=0;entryDx=0;entryDy=30;entryPerimeter=0;" parent="1" source="cMgaW1KZYYT-pBfKISx4-20" target="cMgaW1KZYYT-pBfKISx4-18" edge="1">
          <mxGeometry relative="1" as="geometry" />
        </mxCell>
        <mxCell id="cMgaW1KZYYT-pBfKISx4-24" style="edgeStyle=orthogonalEdgeStyle;rounded=0;orthogonalLoop=1;jettySize=auto;html=1;entryX=0;entryY=0;entryDx=55;entryDy=0;entryPerimeter=0;" parent="1" source="cMgaW1KZYYT-pBfKISx4-16" target="cMgaW1KZYYT-pBfKISx4-20" edge="1">
          <mxGeometry relative="1" as="geometry" />
        </mxCell>
        <mxCell id="cMgaW1KZYYT-pBfKISx4-25" style="edgeStyle=orthogonalEdgeStyle;rounded=0;orthogonalLoop=1;jettySize=auto;html=1;entryX=0;entryY=0;entryDx=55;entryDy=0;entryPerimeter=0;" parent="1" source="cMgaW1KZYYT-pBfKISx4-16" target="cMgaW1KZYYT-pBfKISx4-18" edge="1">
          <mxGeometry relative="1" as="geometry" />
        </mxCell>
        <mxCell id="cMgaW1KZYYT-pBfKISx4-26" value="Package" style="shape=folder;fontStyle=1;tabWidth=110;tabHeight=30;tabPosition=left;html=1;boundedLbl=1;labelInHeader=1;container=1;collapsible=0;whiteSpace=wrap;" parent="1" vertex="1">
          <mxGeometry x="1000" y="350" width="130" height="70" as="geometry" />
        </mxCell>
        <mxCell id="cMgaW1KZYYT-pBfKISx4-27" value="Builders" style="html=1;strokeColor=none;resizeWidth=1;resizeHeight=1;fillColor=none;part=1;connectable=0;allowArrows=0;deletable=0;whiteSpace=wrap;" parent="cMgaW1KZYYT-pBfKISx4-26" vertex="1">
          <mxGeometry width="130" height="49" relative="1" as="geometry">
            <mxPoint y="30" as="offset" />
          </mxGeometry>
        </mxCell>
        <mxCell id="cMgaW1KZYYT-pBfKISx4-28" style="edgeStyle=orthogonalEdgeStyle;rounded=0;orthogonalLoop=1;jettySize=auto;html=1;entryX=0;entryY=0;entryDx=130;entryDy=50;entryPerimeter=0;" parent="1" source="cMgaW1KZYYT-pBfKISx4-26" target="cMgaW1KZYYT-pBfKISx4-18" edge="1">
          <mxGeometry relative="1" as="geometry" />
        </mxCell>
        <mxCell id="cMgaW1KZYYT-pBfKISx4-29" value="Package" style="shape=folder;fontStyle=1;tabWidth=110;tabHeight=30;tabPosition=left;html=1;boundedLbl=1;labelInHeader=1;container=1;collapsible=0;whiteSpace=wrap;" parent="1" vertex="1">
          <mxGeometry x="315" y="-20" width="130" height="70" as="geometry" />
        </mxCell>
        <mxCell id="cMgaW1KZYYT-pBfKISx4-30" value="Main" style="html=1;strokeColor=none;resizeWidth=1;resizeHeight=1;fillColor=none;part=1;connectable=0;allowArrows=0;deletable=0;whiteSpace=wrap;" parent="cMgaW1KZYYT-pBfKISx4-29" vertex="1">
          <mxGeometry width="130" height="49" relative="1" as="geometry">
            <mxPoint y="30" as="offset" />
          </mxGeometry>
        </mxCell>
        <mxCell id="cMgaW1KZYYT-pBfKISx4-31" style="edgeStyle=orthogonalEdgeStyle;rounded=0;orthogonalLoop=1;jettySize=auto;html=1;entryX=0;entryY=0;entryDx=55;entryDy=0;entryPerimeter=0;" parent="1" source="cMgaW1KZYYT-pBfKISx4-29" target="cMgaW1KZYYT-pBfKISx4-26" edge="1">
          <mxGeometry relative="1" as="geometry" />
        </mxCell>
        <mxCell id="cMgaW1KZYYT-pBfKISx4-32" style="edgeStyle=orthogonalEdgeStyle;rounded=0;orthogonalLoop=1;jettySize=auto;html=1;entryX=0;entryY=0;entryDx=55;entryDy=0;entryPerimeter=0;" parent="1" source="cMgaW1KZYYT-pBfKISx4-29" target="cMgaW1KZYYT-pBfKISx4-3" edge="1">
          <mxGeometry relative="1" as="geometry" />
        </mxCell>
        <mxCell id="cMgaW1KZYYT-pBfKISx4-34" style="edgeStyle=orthogonalEdgeStyle;rounded=0;orthogonalLoop=1;jettySize=auto;html=1;entryX=0;entryY=0;entryDx=55;entryDy=0;entryPerimeter=0;" parent="1" source="cMgaW1KZYYT-pBfKISx4-29" target="cMgaW1KZYYT-pBfKISx4-7" edge="1">
          <mxGeometry relative="1" as="geometry">
            <Array as="points">
              <mxPoint x="-195" y="15" />
            </Array>
          </mxGeometry>
        </mxCell>
        <mxCell id="cMgaW1KZYYT-pBfKISx4-35" style="edgeStyle=orthogonalEdgeStyle;rounded=0;orthogonalLoop=1;jettySize=auto;html=1;entryX=0;entryY=0;entryDx=0;entryDy=30;entryPerimeter=0;" parent="1" source="cMgaW1KZYYT-pBfKISx4-29" target="cMgaW1KZYYT-pBfKISx4-16" edge="1">
          <mxGeometry relative="1" as="geometry">
            <Array as="points">
              <mxPoint x="580" y="15" />
              <mxPoint x="580" y="380" />
            </Array>
          </mxGeometry>
        </mxCell>
        <mxCell id="cMgaW1KZYYT-pBfKISx4-36" value="Package" style="shape=folder;fontStyle=1;tabWidth=110;tabHeight=30;tabPosition=left;html=1;boundedLbl=1;labelInHeader=1;container=1;collapsible=0;whiteSpace=wrap;" parent="1" vertex="1">
          <mxGeometry x="315" y="770" width="135" height="70" as="geometry" />
        </mxCell>
        <mxCell id="cMgaW1KZYYT-pBfKISx4-37" value="Services" style="html=1;strokeColor=none;resizeWidth=1;resizeHeight=1;fillColor=none;part=1;connectable=0;allowArrows=0;deletable=0;whiteSpace=wrap;" parent="cMgaW1KZYYT-pBfKISx4-36" vertex="1">
          <mxGeometry width="135" height="49" relative="1" as="geometry">
            <mxPoint y="30" as="offset" />
          </mxGeometry>
        </mxCell>
      </root>
    </mxGraphModel>
  </diagram>
  <diagram id="A6J_3MjQcsw_d07Om_qR" name="Ejemplo3-ComponentesPaquetes-RomperCiclo-Componentes">
    <mxGraphModel dx="5455" dy="1672" grid="1" gridSize="10" guides="1" tooltips="1" connect="1" arrows="1" fold="1" page="1" pageScale="1" pageWidth="827" pageHeight="1169" math="0" shadow="0">
      <root>
        <mxCell id="0" />
        <mxCell id="1" parent="0" />
        <mxCell id="Nhn-zJtECRdqWNFmMfo--1" value="&lt;div&gt;InicioMain&lt;/div&gt;" style="shape=module;align=left;spacingLeft=20;align=center;verticalAlign=top;whiteSpace=wrap;html=1;" vertex="1" parent="1">
          <mxGeometry x="-440" y="110" width="400" height="150" as="geometry" />
        </mxCell>
        <mxCell id="Qz_YcKXKXKgwy_o_uaIJ-1" value="Package" style="shape=folder;fontStyle=1;tabWidth=110;tabHeight=30;tabPosition=left;html=1;boundedLbl=1;labelInHeader=1;container=1;collapsible=0;whiteSpace=wrap;" vertex="1" parent="1">
          <mxGeometry x="-300" y="150" width="130" height="70" as="geometry" />
        </mxCell>
        <mxCell id="Qz_YcKXKXKgwy_o_uaIJ-2" value="InicioMain" style="html=1;strokeColor=none;resizeWidth=1;resizeHeight=1;fillColor=none;part=1;connectable=0;allowArrows=0;deletable=0;whiteSpace=wrap;" vertex="1" parent="Qz_YcKXKXKgwy_o_uaIJ-1">
          <mxGeometry width="130" height="49" relative="1" as="geometry">
            <mxPoint y="30" as="offset" />
          </mxGeometry>
        </mxCell>
        <mxCell id="Qz_YcKXKXKgwy_o_uaIJ-3" value="&lt;div&gt;App1ViewCases&lt;/div&gt;" style="shape=module;align=left;spacingLeft=20;align=center;verticalAlign=top;whiteSpace=wrap;html=1;" vertex="1" parent="1">
          <mxGeometry x="-460" y="275" width="440" height="215" as="geometry" />
        </mxCell>
        <mxCell id="3BsAthiYU1_TaavU84ZB-1" value="App1UseCases" style="shape=module;align=left;spacingLeft=20;align=center;verticalAlign=top;whiteSpace=wrap;html=1;" vertex="1" parent="1">
          <mxGeometry x="-420" y="850" width="355" height="170" as="geometry" />
        </mxCell>
        <mxCell id="3BsAthiYU1_TaavU84ZB-3" value="&lt;div&gt;App1Entities&lt;/div&gt;" style="shape=module;align=left;spacingLeft=20;align=center;verticalAlign=top;whiteSpace=wrap;html=1;" vertex="1" parent="1">
          <mxGeometry x="-420" y="1105" width="340" height="180" as="geometry" />
        </mxCell>
        <mxCell id="3BsAthiYU1_TaavU84ZB-4" value="&lt;div&gt;Controllers&lt;/div&gt;" style="shape=module;align=left;spacingLeft=20;align=center;verticalAlign=top;whiteSpace=wrap;html=1;" vertex="1" parent="1">
          <mxGeometry x="-395" y="570" width="340" height="200" as="geometry" />
        </mxCell>
        <mxCell id="q8m2D72OvggkYZPZUVyA-6" style="edgeStyle=orthogonalEdgeStyle;rounded=0;orthogonalLoop=1;jettySize=auto;html=1;" edge="1" parent="1" source="3BsAthiYU1_TaavU84ZB-5" target="3BsAthiYU1_TaavU84ZB-20">
          <mxGeometry relative="1" as="geometry">
            <Array as="points">
              <mxPoint x="-349" y="460" />
              <mxPoint x="20" y="460" />
              <mxPoint x="20" y="1195" />
            </Array>
          </mxGeometry>
        </mxCell>
        <mxCell id="3BsAthiYU1_TaavU84ZB-5" value="Package" style="shape=folder;fontStyle=1;tabWidth=110;tabHeight=30;tabPosition=left;html=1;boundedLbl=1;labelInHeader=1;container=1;collapsible=0;whiteSpace=wrap;" vertex="1" parent="1">
          <mxGeometry x="-414" y="360" width="130" height="70" as="geometry" />
        </mxCell>
        <mxCell id="3BsAthiYU1_TaavU84ZB-6" value="Authorizer" style="html=1;strokeColor=none;resizeWidth=1;resizeHeight=1;fillColor=none;part=1;connectable=0;allowArrows=0;deletable=0;whiteSpace=wrap;" vertex="1" parent="3BsAthiYU1_TaavU84ZB-5">
          <mxGeometry width="130" height="49" relative="1" as="geometry">
            <mxPoint y="30" as="offset" />
          </mxGeometry>
        </mxCell>
        <mxCell id="3BsAthiYU1_TaavU84ZB-26" style="edgeStyle=orthogonalEdgeStyle;rounded=0;orthogonalLoop=1;jettySize=auto;html=1;exitX=0.5;exitY=1;exitDx=0;exitDy=0;exitPerimeter=0;entryX=0;entryY=0;entryDx=55;entryDy=0;entryPerimeter=0;" edge="1" parent="1" source="3BsAthiYU1_TaavU84ZB-7" target="3BsAthiYU1_TaavU84ZB-24">
          <mxGeometry relative="1" as="geometry">
            <Array as="points">
              <mxPoint x="-125" y="532" />
              <mxPoint x="-240" y="532" />
            </Array>
          </mxGeometry>
        </mxCell>
        <mxCell id="3BsAthiYU1_TaavU84ZB-7" value="Package" style="shape=folder;fontStyle=1;tabWidth=110;tabHeight=30;tabPosition=left;html=1;boundedLbl=1;labelInHeader=1;container=1;collapsible=0;whiteSpace=wrap;" vertex="1" parent="1">
          <mxGeometry x="-190" y="360" width="130" height="70" as="geometry" />
        </mxCell>
        <mxCell id="3BsAthiYU1_TaavU84ZB-8" value="View.UseCases" style="html=1;strokeColor=none;resizeWidth=1;resizeHeight=1;fillColor=none;part=1;connectable=0;allowArrows=0;deletable=0;whiteSpace=wrap;" vertex="1" parent="3BsAthiYU1_TaavU84ZB-7">
          <mxGeometry width="130" height="49" relative="1" as="geometry">
            <mxPoint y="30" as="offset" />
          </mxGeometry>
        </mxCell>
        <mxCell id="3BsAthiYU1_TaavU84ZB-11" style="edgeStyle=orthogonalEdgeStyle;rounded=0;orthogonalLoop=1;jettySize=auto;html=1;" edge="1" parent="1" source="Qz_YcKXKXKgwy_o_uaIJ-1" target="3BsAthiYU1_TaavU84ZB-7">
          <mxGeometry relative="1" as="geometry">
            <Array as="points">
              <mxPoint x="-190" y="210" />
              <mxPoint x="-125" y="210" />
            </Array>
          </mxGeometry>
        </mxCell>
        <mxCell id="3BsAthiYU1_TaavU84ZB-10" style="edgeStyle=orthogonalEdgeStyle;rounded=0;orthogonalLoop=1;jettySize=auto;html=1;entryX=0;entryY=0;entryDx=55;entryDy=0;entryPerimeter=0;" edge="1" parent="1" source="Qz_YcKXKXKgwy_o_uaIJ-1" target="3BsAthiYU1_TaavU84ZB-5">
          <mxGeometry relative="1" as="geometry">
            <Array as="points">
              <mxPoint x="-270" y="210" />
              <mxPoint x="-359" y="210" />
            </Array>
          </mxGeometry>
        </mxCell>
        <mxCell id="3BsAthiYU1_TaavU84ZB-23" style="edgeStyle=orthogonalEdgeStyle;rounded=0;orthogonalLoop=1;jettySize=auto;html=1;exitX=0.5;exitY=1;exitDx=0;exitDy=0;exitPerimeter=0;entryX=0;entryY=0;entryDx=55;entryDy=0;entryPerimeter=0;" edge="1" parent="1" source="3BsAthiYU1_TaavU84ZB-12" target="3BsAthiYU1_TaavU84ZB-20">
          <mxGeometry relative="1" as="geometry" />
        </mxCell>
        <mxCell id="3BsAthiYU1_TaavU84ZB-12" value="Package" style="shape=folder;fontStyle=1;tabWidth=110;tabHeight=30;tabPosition=left;html=1;boundedLbl=1;labelInHeader=1;container=1;collapsible=0;whiteSpace=wrap;" vertex="1" parent="1">
          <mxGeometry x="-311" y="900" width="130" height="70" as="geometry" />
        </mxCell>
        <mxCell id="3BsAthiYU1_TaavU84ZB-13" value="InteractorsUseCases" style="html=1;strokeColor=none;resizeWidth=1;resizeHeight=1;fillColor=none;part=1;connectable=0;allowArrows=0;deletable=0;whiteSpace=wrap;" vertex="1" parent="3BsAthiYU1_TaavU84ZB-12">
          <mxGeometry width="130" height="49" relative="1" as="geometry">
            <mxPoint y="30" as="offset" />
          </mxGeometry>
        </mxCell>
        <mxCell id="3BsAthiYU1_TaavU84ZB-18" value="Package" style="shape=folder;fontStyle=1;tabWidth=110;tabHeight=30;tabPosition=left;html=1;boundedLbl=1;labelInHeader=1;container=1;collapsible=0;whiteSpace=wrap;" vertex="1" parent="1">
          <mxGeometry x="-386" y="1160" width="130" height="70" as="geometry" />
        </mxCell>
        <mxCell id="3BsAthiYU1_TaavU84ZB-19" value="DataBase" style="html=1;strokeColor=none;resizeWidth=1;resizeHeight=1;fillColor=none;part=1;connectable=0;allowArrows=0;deletable=0;whiteSpace=wrap;" vertex="1" parent="3BsAthiYU1_TaavU84ZB-18">
          <mxGeometry width="130" height="49" relative="1" as="geometry">
            <mxPoint y="30" as="offset" />
          </mxGeometry>
        </mxCell>
        <mxCell id="3BsAthiYU1_TaavU84ZB-22" style="edgeStyle=orthogonalEdgeStyle;rounded=0;orthogonalLoop=1;jettySize=auto;html=1;" edge="1" parent="1" source="3BsAthiYU1_TaavU84ZB-20" target="3BsAthiYU1_TaavU84ZB-18">
          <mxGeometry relative="1" as="geometry" />
        </mxCell>
        <mxCell id="3BsAthiYU1_TaavU84ZB-20" value="Package" style="shape=folder;fontStyle=1;tabWidth=110;tabHeight=30;tabPosition=left;html=1;boundedLbl=1;labelInHeader=1;container=1;collapsible=0;whiteSpace=wrap;" vertex="1" parent="1">
          <mxGeometry x="-226" y="1160" width="130" height="70" as="geometry" />
        </mxCell>
        <mxCell id="3BsAthiYU1_TaavU84ZB-21" value="Entities" style="html=1;strokeColor=none;resizeWidth=1;resizeHeight=1;fillColor=none;part=1;connectable=0;allowArrows=0;deletable=0;whiteSpace=wrap;" vertex="1" parent="3BsAthiYU1_TaavU84ZB-20">
          <mxGeometry width="130" height="49" relative="1" as="geometry">
            <mxPoint y="30" as="offset" />
          </mxGeometry>
        </mxCell>
        <mxCell id="3BsAthiYU1_TaavU84ZB-27" style="edgeStyle=orthogonalEdgeStyle;rounded=0;orthogonalLoop=1;jettySize=auto;html=1;entryX=0;entryY=0;entryDx=55;entryDy=0;entryPerimeter=0;" edge="1" parent="1" source="3BsAthiYU1_TaavU84ZB-24" target="3BsAthiYU1_TaavU84ZB-12">
          <mxGeometry relative="1" as="geometry" />
        </mxCell>
        <mxCell id="3BsAthiYU1_TaavU84ZB-24" value="Package" style="shape=folder;fontStyle=1;tabWidth=110;tabHeight=30;tabPosition=left;html=1;boundedLbl=1;labelInHeader=1;container=1;collapsible=0;whiteSpace=wrap;" vertex="1" parent="1">
          <mxGeometry x="-295" y="635" width="130" height="70" as="geometry" />
        </mxCell>
        <mxCell id="3BsAthiYU1_TaavU84ZB-25" value="Controllers" style="html=1;strokeColor=none;resizeWidth=1;resizeHeight=1;fillColor=none;part=1;connectable=0;allowArrows=0;deletable=0;whiteSpace=wrap;" vertex="1" parent="3BsAthiYU1_TaavU84ZB-24">
          <mxGeometry width="130" height="49" relative="1" as="geometry">
            <mxPoint y="30" as="offset" />
          </mxGeometry>
        </mxCell>
        <mxCell id="q8m2D72OvggkYZPZUVyA-1" value="&lt;div&gt;App1DTO&lt;/div&gt;" style="shape=module;align=left;spacingLeft=20;align=center;verticalAlign=top;whiteSpace=wrap;html=1;" vertex="1" parent="1">
          <mxGeometry x="-420" y="1360" width="340" height="180" as="geometry" />
        </mxCell>
        <mxCell id="q8m2D72OvggkYZPZUVyA-2" value="Package" style="shape=folder;fontStyle=1;tabWidth=110;tabHeight=30;tabPosition=left;html=1;boundedLbl=1;labelInHeader=1;container=1;collapsible=0;whiteSpace=wrap;" vertex="1" parent="1">
          <mxGeometry x="-290" y="1415" width="130" height="70" as="geometry" />
        </mxCell>
        <mxCell id="q8m2D72OvggkYZPZUVyA-3" value="DTO" style="html=1;strokeColor=none;resizeWidth=1;resizeHeight=1;fillColor=none;part=1;connectable=0;allowArrows=0;deletable=0;whiteSpace=wrap;" vertex="1" parent="q8m2D72OvggkYZPZUVyA-2">
          <mxGeometry width="130" height="49" relative="1" as="geometry">
            <mxPoint y="30" as="offset" />
          </mxGeometry>
        </mxCell>
        <mxCell id="q8m2D72OvggkYZPZUVyA-4" style="edgeStyle=orthogonalEdgeStyle;rounded=0;orthogonalLoop=1;jettySize=auto;html=1;exitX=0.5;exitY=1;exitDx=0;exitDy=0;exitPerimeter=0;" edge="1" parent="1" source="3BsAthiYU1_TaavU84ZB-18" target="q8m2D72OvggkYZPZUVyA-2">
          <mxGeometry relative="1" as="geometry" />
        </mxCell>
        <mxCell id="q8m2D72OvggkYZPZUVyA-5" style="edgeStyle=orthogonalEdgeStyle;rounded=0;orthogonalLoop=1;jettySize=auto;html=1;entryX=0;entryY=0;entryDx=130;entryDy=60;entryPerimeter=0;" edge="1" parent="1" source="3BsAthiYU1_TaavU84ZB-7" target="q8m2D72OvggkYZPZUVyA-2">
          <mxGeometry relative="1" as="geometry">
            <Array as="points">
              <mxPoint x="60" y="395" />
              <mxPoint x="60" y="1475" />
            </Array>
          </mxGeometry>
        </mxCell>
        <mxCell id="q8m2D72OvggkYZPZUVyA-7" style="edgeStyle=orthogonalEdgeStyle;rounded=0;orthogonalLoop=1;jettySize=auto;html=1;exitX=0;exitY=0;exitDx=0;exitDy=40;exitPerimeter=0;entryX=0;entryY=0;entryDx=0;entryDy=50;entryPerimeter=0;" edge="1" parent="1" source="3BsAthiYU1_TaavU84ZB-12" target="q8m2D72OvggkYZPZUVyA-2">
          <mxGeometry relative="1" as="geometry">
            <Array as="points">
              <mxPoint x="-540" y="940" />
              <mxPoint x="-540" y="1465" />
            </Array>
          </mxGeometry>
        </mxCell>
      </root>
    </mxGraphModel>
  </diagram>
</mxfile>
